<?xml version="1.0" encoding="UTF-8" ?>
<svg version="1.1" width="320" height="320" xmlns="http://www.w3.org/2000/svg" shape-rendering="crispEdges">
<rect x="130" y="10" width="60" height="50" fill="#101010" />
<rect x="100" y="20" width="30" height="40" fill="#101010" />
<rect x="190" y="20" width="30" height="50" fill="#101010" />
<rect x="80" y="30" width="20" height="40" fill="#101010" />
<rect x="220" y="30" width="20" height="40" fill="#101010" />
<rect x="70" y="40" width="10" height="30" fill="#101010" />
<rect x="240" y="40" width="10" height="30" fill="#101010" />
<rect x="60" y="50" width="10" height="70" fill="#101010" />
<rect x="250" y="50" width="10" height="60" fill="#101010" />
<rect x="50" y="60" width="10" height="150" fill="#101010" />
<rect x="100" y="60" width="20" height="10" fill="#101010" />
<rect x="120" y="60" width="60" height="20" fill="#181818" />
<rect x="180" y="60" width="10" height="10" fill="#101010" />
<rect x="260" y="60" width="10" height="70" fill="#101010" />
<rect x="40" y="70" width="10" height="180" fill="#101010" />
<rect x="70" y="70" width="20" height="30" fill="#FFFFFF" />
<rect x="90" y="70" width="30" height="10" fill="#181818" />
<rect x="180" y="70" width="30" height="10" fill="#181818" />
<rect x="210" y="70" width="20" height="10" fill="#101010" />
<rect x="230" y="70" width="20" height="30" fill="#FFFFFF" />
<rect x="270" y="70" width="10" height="180" fill="#101010" />
<rect x="30" y="80" width="10" height="160" fill="#101010" />
<rect x="90" y="80" width="20" height="110" fill="#FFFFFF" />
<rect x="110" y="80" width="10" height="10" fill="#181818" />
<rect x="120" y="80" width="80" height="130" fill="#FFFFFF" />
<rect x="200" y="80" width="10" height="10" fill="#181818" />
<rect x="210" y="80" width="20" height="110" fill="#FFFFFF" />
<rect x="280" y="80" width="10" height="110" fill="#101010" />
<rect x="110" y="90" width="10" height="120" fill="#FFFFFF" />
<rect x="200" y="90" width="10" height="120" fill="#FFFFFF" />
<rect x="20" y="100" width="10" height="120" fill="#101010" />
<rect x="70" y="100" width="10" height="30" fill="#181818" />
<rect x="80" y="100" width="10" height="10" fill="#FFFFFF" />
<rect x="230" y="100" width="10" height="10" fill="#FFFFFF" />
<rect x="240" y="100" width="10" height="30" fill="#181818" />
<rect x="290" y="100" width="10" height="120" fill="#101010" />
<rect x="80" y="110" width="10" height="10" fill="#181818" />
<rect x="230" y="110" width="10" height="10" fill="#181818" />
<rect x="250" y="110" width="10" height="60" fill="#181818" />
<rect x="60" y="120" width="10" height="30" fill="#181818" />
<rect x="80" y="120" width="10" height="60" fill="#FFFFFF" />
<rect x="230" y="120" width="10" height="60" fill="#FFFFFF" />
<rect x="10" y="130" width="10" height="60" fill="#101010" />
<rect x="70" y="130" width="10" height="40" fill="#FFFFFF" />
<rect x="240" y="130" width="10" height="40" fill="#FFFFFF" />
<rect x="260" y="130" width="10" height="20" fill="#181818" />
<rect x="300" y="130" width="10" height="60" fill="#101010" />
<rect x="60" y="150" width="10" height="20" fill="#101010" />
<rect x="260" y="150" width="10" height="110" fill="#101010" />
<rect x="60" y="170" width="20" height="30" fill="#181818" />
<rect x="240" y="170" width="10" height="30" fill="#181818" />
<rect x="250" y="170" width="10" height="100" fill="#101010" />
<rect x="80" y="180" width="10" height="20" fill="#181818" />
<rect x="230" y="180" width="10" height="10" fill="#181818" />
<rect x="90" y="190" width="10" height="10" fill="#181818" />
<rect x="100" y="190" width="10" height="10" fill="#FFFFFF" />
<rect x="210" y="190" width="10" height="10" fill="#FFFFFF" />
<rect x="220" y="190" width="10" height="10" fill="#181818" />
<rect x="230" y="190" width="10" height="100" fill="#101010" />
<rect x="280" y="190" width="10" height="10" fill="#181818" />
<rect x="60" y="200" width="50" height="10" fill="#101010" />
<rect x="210" y="200" width="10" height="20" fill="#181818" />
<rect x="220" y="200" width="10" height="90" fill="#101010" />
<rect x="240" y="200" width="10" height="80" fill="#101010" />
<rect x="280" y="200" width="10" height="40" fill="#101010" />
<rect x="50" y="210" width="20" height="10" fill="#FFFFFF" />
<rect x="70" y="210" width="60" height="10" fill="#101010" />
<rect x="130" y="210" width="60" height="100" fill="#FFFFFF" />
<rect x="190" y="210" width="20" height="10" fill="#181818" />
<rect x="50" y="220" width="10" height="40" fill="#101010" />
<rect x="60" y="220" width="30" height="10" fill="#FFFFFF" />
<rect x="90" y="220" width="30" height="10" fill="#101010" />
<rect x="120" y="220" width="10" height="80" fill="#FFFFFF" />
<rect x="190" y="220" width="10" height="80" fill="#FFFFFF" />
<rect x="200" y="220" width="10" height="30" fill="#181818" />
<rect x="210" y="220" width="10" height="10" fill="#101010" />
<rect x="60" y="230" width="10" height="40" fill="#101010" />
<rect x="70" y="230" width="50" height="10" fill="#FFFFFF" />
<rect x="210" y="230" width="10" height="10" fill="#181818" />
<rect x="70" y="240" width="10" height="40" fill="#101010" />
<rect x="80" y="240" width="40" height="10" fill="#FFFFFF" />
<rect x="210" y="240" width="10" height="50" fill="#101010" />
<rect x="80" y="250" width="30" height="40" fill="#101010" />
<rect x="110" y="250" width="10" height="10" fill="#181818" />
<rect x="200" y="250" width="10" height="30" fill="#101010" />
<rect x="110" y="260" width="10" height="20" fill="#101010" />
<rect x="110" y="280" width="10" height="20" fill="#FFFFFF" />
<rect x="200" y="280" width="10" height="20" fill="#FFFFFF" />
<rect x="100" y="290" width="10" height="10" fill="#FFFFFF" />
<rect x="210" y="290" width="10" height="10" fill="#FFFFFF" />
</svg>