<?xml version="1.0" encoding="UTF-8" ?>
<svg version="1.1" width="320" height="320" xmlns="http://www.w3.org/2000/svg" shape-rendering="crispEdges">
<rect x="30" y="0" width="10" height="60" fill="#680000" />
<rect x="40" y="0" width="20" height="60" fill="#C1AB42" />
<rect x="60" y="0" width="20" height="60" fill="#3A611F" />
<rect x="80" y="0" width="20" height="60" fill="#1F4261" />
<rect x="100" y="0" width="10" height="20" fill="#783F0C" />
<rect x="110" y="0" width="10" height="20" fill="#68370A" />
<rect x="120" y="0" width="20" height="20" fill="#5D3008" />
<rect x="140" y="0" width="30" height="20" fill="#512A07" />
<rect x="170" y="0" width="20" height="20" fill="#5D3008" />
<rect x="190" y="0" width="10" height="10" fill="#512A07" />
<rect x="200" y="0" width="80" height="10" fill="#462405" />
<rect x="280" y="0" width="10" height="30" fill="#512A07" />
<rect x="20" y="10" width="10" height="60" fill="#680000" />
<rect x="190" y="10" width="10" height="10" fill="#5D3008" />
<rect x="200" y="10" width="70" height="10" fill="#462405" />
<rect x="270" y="10" width="10" height="10" fill="#512A07" />
<rect x="290" y="10" width="10" height="30" fill="#512A07" />
<rect x="10" y="20" width="10" height="10" fill="#5D3008" />
<rect x="100" y="20" width="10" height="30" fill="#5D3008" />
<rect x="110" y="20" width="20" height="10" fill="#783F0C" />
<rect x="130" y="20" width="50" height="10" fill="#5D3008" />
<rect x="180" y="20" width="20" height="10" fill="#68370A" />
<rect x="200" y="20" width="30" height="10" fill="#462405" />
<rect x="230" y="20" width="10" height="10" fill="#512A07" />
<rect x="240" y="20" width="40" height="10" fill="#101010" />
<rect x="300" y="20" width="10" height="60" fill="#512A07" />
<rect x="0" y="30" width="20" height="30" fill="#512A07" />
<rect x="110" y="30" width="20" height="10" fill="#5D3008" />
<rect x="130" y="30" width="10" height="10" fill="#783F0C" />
<rect x="140" y="30" width="10" height="10" fill="#5D3008" />
<rect x="150" y="30" width="20" height="10" fill="#783F0C" />
<rect x="170" y="30" width="20" height="10" fill="#68370A" />
<rect x="190" y="30" width="10" height="20" fill="#512A07" />
<rect x="200" y="30" width="20" height="20" fill="#462405" />
<rect x="220" y="30" width="10" height="10" fill="#512A07" />
<rect x="230" y="30" width="10" height="20" fill="#101010" />
<rect x="240" y="30" width="40" height="10" fill="#181818" />
<rect x="280" y="30" width="10" height="40" fill="#101010" />
<rect x="310" y="30" width="10" height="50" fill="#512A07" />
<rect x="110" y="40" width="50" height="10" fill="#68370A" />
<rect x="160" y="40" width="20" height="10" fill="#783F0C" />
<rect x="180" y="40" width="10" height="10" fill="#68370A" />
<rect x="220" y="40" width="10" height="40" fill="#101010" />
<rect x="240" y="40" width="10" height="10" fill="#101010" />
<rect x="250" y="40" width="30" height="10" fill="#181818" />
<rect x="290" y="40" width="10" height="10" fill="#101010" />
<rect x="100" y="50" width="10" height="10" fill="#68370A" />
<rect x="110" y="50" width="30" height="10" fill="#783F0C" />
<rect x="140" y="50" width="10" height="10" fill="#5D3008" />
<rect x="150" y="50" width="10" height="40" fill="#512A07" />
<rect x="160" y="50" width="30" height="10" fill="#5D3008" />
<rect x="190" y="50" width="10" height="20" fill="#462405" />
<rect x="200" y="50" width="10" height="10" fill="#512A07" />
<rect x="210" y="50" width="10" height="10" fill="#5D3008" />
<rect x="230" y="50" width="20" height="10" fill="#181818" />
<rect x="250" y="50" width="20" height="10" fill="#313131" />
<rect x="270" y="50" width="10" height="10" fill="#181818" />
<rect x="290" y="50" width="10" height="10" fill="#181818" />
<rect x="0" y="60" width="20" height="70" fill="#462405" />
<rect x="30" y="60" width="10" height="10" fill="#512A07" />
<rect x="40" y="60" width="10" height="10" fill="#C1AB42" />
<rect x="50" y="60" width="10" height="20" fill="#512A07" />
<rect x="60" y="60" width="10" height="10" fill="#3A611F" />
<rect x="70" y="60" width="10" height="10" fill="#512A07" />
<rect x="80" y="60" width="10" height="10" fill="#1F4261" />
<rect x="90" y="60" width="10" height="10" fill="#512A07" />
<rect x="100" y="60" width="30" height="10" fill="#783F0C" />
<rect x="130" y="60" width="20" height="10" fill="#68370A" />
<rect x="160" y="60" width="20" height="10" fill="#5D3008" />
<rect x="180" y="60" width="10" height="20" fill="#512A07" />
<rect x="200" y="60" width="10" height="20" fill="#5D3008" />
<rect x="210" y="60" width="10" height="10" fill="#68370A" />
<rect x="230" y="60" width="10" height="10" fill="#101010" />
<rect x="240" y="60" width="10" height="10" fill="#313131" />
<rect x="250" y="60" width="10" height="10" fill="#101010" />
<rect x="260" y="60" width="10" height="10" fill="#181818" />
<rect x="270" y="60" width="10" height="20" fill="#101010" />
<rect x="290" y="60" width="10" height="20" fill="#101010" />
<rect x="20" y="70" width="30" height="60" fill="#462405" />
<rect x="60" y="70" width="10" height="10" fill="#512A07" />
<rect x="70" y="70" width="10" height="20" fill="#783F0C" />
<rect x="80" y="70" width="60" height="10" fill="#68370A" />
<rect x="140" y="70" width="10" height="20" fill="#5D3008" />
<rect x="160" y="70" width="10" height="20" fill="#512A07" />
<rect x="170" y="70" width="10" height="10" fill="#5D3008" />
<rect x="190" y="70" width="10" height="30" fill="#5D3008" />
<rect x="210" y="70" width="10" height="10" fill="#512A07" />
<rect x="230" y="70" width="30" height="10" fill="#181818" />
<rect x="260" y="70" width="10" height="30" fill="#101010" />
<rect x="280" y="70" width="10" height="10" fill="#181818" />
<rect x="50" y="80" width="10" height="50" fill="#462405" />
<rect x="60" y="80" width="10" height="30" fill="#68370A" />
<rect x="80" y="80" width="20" height="30" fill="#68370A" />
<rect x="100" y="80" width="10" height="10" fill="#783F0C" />
<rect x="110" y="80" width="30" height="20" fill="#5D3008" />
<rect x="170" y="80" width="10" height="10" fill="#462405" />
<rect x="180" y="80" width="10" height="10" fill="#5D3008" />
<rect x="200" y="80" width="10" height="10" fill="#512A07" />
<rect x="210" y="80" width="20" height="20" fill="#5D3008" />
<rect x="230" y="80" width="10" height="10" fill="#101010" />
<rect x="240" y="80" width="10" height="10" fill="#181818" />
<rect x="250" y="80" width="10" height="20" fill="#101010" />
<rect x="270" y="80" width="10" height="10" fill="#181818" />
<rect x="280" y="80" width="10" height="10" fill="#101010" />
<rect x="290" y="80" width="30" height="10" fill="#462405" />
<rect x="70" y="90" width="10" height="30" fill="#68370A" />
<rect x="100" y="90" width="10" height="10" fill="#68370A" />
<rect x="140" y="90" width="30" height="10" fill="#462405" />
<rect x="170" y="90" width="20" height="10" fill="#512A07" />
<rect x="200" y="90" width="10" height="10" fill="#5D3008" />
<rect x="230" y="90" width="10" height="30" fill="#512A07" />
<rect x="240" y="90" width="10" height="10" fill="#101010" />
<rect x="270" y="90" width="10" height="10" fill="#101010" />
<rect x="280" y="90" width="10" height="10" fill="#462405" />
<rect x="290" y="90" width="10" height="10" fill="#512A07" />
<rect x="300" y="90" width="20" height="40" fill="#783F0C" />
<rect x="100" y="100" width="10" height="10" fill="#D8BEA5" />
<rect x="110" y="100" width="40" height="10" fill="#C7AA99" />
<rect x="150" y="100" width="40" height="10" fill="#D8BEA5" />
<rect x="190" y="100" width="30" height="10" fill="#C7AA99" />
<rect x="220" y="100" width="10" height="10" fill="#512A07" />
<rect x="240" y="100" width="10" height="10" fill="#512A07" />
<rect x="250" y="100" width="30" height="30" fill="#462405" />
<rect x="280" y="100" width="10" height="30" fill="#512A07" />
<rect x="290" y="100" width="10" height="30" fill="#783F0C" />
<rect x="60" y="110" width="10" height="20" fill="#462405" />
<rect x="80" y="110" width="10" height="10" fill="#68370A" />
<rect x="90" y="110" width="10" height="10" fill="#D8BEA5" />
<rect x="100" y="110" width="10" height="10" fill="#1C1C1C" />
<rect x="110" y="110" width="10" height="10" fill="#1E1E1E" />
<rect x="120" y="110" width="10" height="10" fill="#202020" />
<rect x="130" y="110" width="10" height="10" fill="#222222" />
<rect x="140" y="110" width="10" height="10" fill="#181818" />
<rect x="150" y="110" width="10" height="10" fill="#262626" />
<rect x="160" y="110" width="20" height="10" fill="#242424" />
<rect x="180" y="110" width="20" height="30" fill="#313131" />
<rect x="200" y="110" width="10" height="10" fill="#303030" />
<rect x="210" y="110" width="10" height="10" fill="#242424" />
<rect x="220" y="110" width="10" height="10" fill="#D8BEA5" />
<rect x="240" y="110" width="10" height="20" fill="#462405" />
<rect x="70" y="120" width="10" height="10" fill="#462405" />
<rect x="80" y="120" width="10" height="10" fill="#D8BEA5" />
<rect x="90" y="120" width="10" height="10" fill="#181818" />
<rect x="100" y="120" width="10" height="10" fill="#1A1A1A" />
<rect x="110" y="120" width="10" height="10" fill="#1C1C1C" />
<rect x="120" y="120" width="10" height="10" fill="#1E1E1E" />
<rect x="130" y="120" width="10" height="10" fill="#202020" />
<rect x="140" y="120" width="10" height="10" fill="#222222" />
<rect x="150" y="120" width="10" height="10" fill="#101010" />
<rect x="160" y="120" width="10" height="10" fill="#262626" />
<rect x="170" y="120" width="10" height="20" fill="#313131" />
<rect x="200" y="120" width="10" height="10" fill="#313131" />
<rect x="210" y="120" width="10" height="10" fill="#181818" />
<rect x="220" y="120" width="10" height="20" fill="#242424" />
<rect x="230" y="120" width="10" height="10" fill="#C7AA99" />
<rect x="0" y="130" width="10" height="10" fill="#D8BEA5" />
<rect x="10" y="130" width="40" height="20" fill="#101010" />
<rect x="50" y="130" width="20" height="20" fill="#D8BEA5" />
<rect x="70" y="130" width="10" height="30" fill="#C7AA99" />
<rect x="80" y="130" width="10" height="10" fill="#141414" />
<rect x="90" y="130" width="10" height="10" fill="#161616" />
<rect x="100" y="130" width="10" height="10" fill="#101010" />
<rect x="110" y="130" width="10" height="10" fill="#1A1A1A" />
<rect x="120" y="130" width="10" height="10" fill="#1C1C1C" />
<rect x="130" y="130" width="10" height="10" fill="#1E1E1E" />
<rect x="140" y="130" width="10" height="10" fill="#202020" />
<rect x="150" y="130" width="10" height="10" fill="#222222" />
<rect x="160" y="130" width="10" height="10" fill="#181818" />
<rect x="200" y="130" width="10" height="10" fill="#2D2D2D" />
<rect x="210" y="130" width="10" height="10" fill="#313131" />
<rect x="230" y="130" width="10" height="20" fill="#181818" />
<rect x="240" y="130" width="10" height="40" fill="#C7AA99" />
<rect x="250" y="130" width="30" height="130" fill="#E4CBB5" />
<rect x="280" y="130" width="20" height="10" fill="#D8BEA5" />
<rect x="300" y="130" width="20" height="10" fill="#C7AA99" />
<rect x="0" y="140" width="10" height="40" fill="#C7AA99" />
<rect x="80" y="140" width="10" height="10" fill="#121212" />
<rect x="90" y="140" width="10" height="10" fill="#141414" />
<rect x="100" y="140" width="10" height="10" fill="#161616" />
<rect x="110" y="140" width="10" height="10" fill="#101010" />
<rect x="120" y="140" width="10" height="10" fill="#1A1A1A" />
<rect x="130" y="140" width="10" height="10" fill="#1C1C1C" />
<rect x="140" y="140" width="10" height="10" fill="#1F1F1F" />
<rect x="150" y="140" width="10" height="10" fill="#212121" />
<rect x="160" y="140" width="10" height="10" fill="#232323" />
<rect x="170" y="140" width="20" height="10" fill="#242424" />
<rect x="190" y="140" width="10" height="10" fill="#292929" />
<rect x="200" y="140" width="10" height="10" fill="#313131" />
<rect x="210" y="140" width="10" height="10" fill="#2D2D2D" />
<rect x="220" y="140" width="10" height="10" fill="#2F2F2F" />
<rect x="280" y="140" width="10" height="110" fill="#E4CBB5" />
<rect x="290" y="140" width="30" height="10" fill="#D8BEA5" />
<rect x="10" y="150" width="10" height="20" fill="#C7AA99" />
<rect x="20" y="150" width="10" height="10" fill="#D8BEA5" />
<rect x="30" y="150" width="40" height="120" fill="#E4CBB5" />
<rect x="80" y="150" width="10" height="40" fill="#101010" />
<rect x="90" y="150" width="10" height="10" fill="#121212" />
<rect x="100" y="150" width="10" height="10" fill="#151515" />
<rect x="110" y="150" width="10" height="10" fill="#171717" />
<rect x="120" y="150" width="10" height="10" fill="#191919" />
<rect x="130" y="150" width="10" height="10" fill="#1B1B1B" />
<rect x="140" y="150" width="10" height="10" fill="#1D1D1D" />
<rect x="150" y="150" width="10" height="10" fill="#1F1F1F" />
<rect x="160" y="150" width="10" height="10" fill="#212121" />
<rect x="170" y="150" width="10" height="10" fill="#232323" />
<rect x="180" y="150" width="10" height="10" fill="#252525" />
<rect x="190" y="150" width="10" height="20" fill="#181818" />
<rect x="200" y="150" width="10" height="10" fill="#292929" />
<rect x="210" y="150" width="10" height="10" fill="#2B2B2B" />
<rect x="220" y="150" width="10" height="10" fill="#2D2D2D" />
<rect x="230" y="150" width="10" height="10" fill="#2F2F2F" />
<rect x="290" y="150" width="10" height="50" fill="#E4CBB5" />
<rect x="300" y="150" width="20" height="20" fill="#D8BEA5" />
<rect x="20" y="160" width="10" height="70" fill="#E4CBB5" />
<rect x="70" y="160" width="10" height="20" fill="#D8BEA5" />
<rect x="90" y="160" width="10" height="10" fill="#111111" />
<rect x="100" y="160" width="10" height="10" fill="#131313" />
<rect x="110" y="160" width="10" height="10" fill="#151515" />
<rect x="120" y="160" width="50" height="50" fill="#101010" />
<rect x="170" y="160" width="10" height="10" fill="#212121" />
<rect x="180" y="160" width="10" height="20" fill="#181818" />
<rect x="200" y="160" width="10" height="10" fill="#272727" />
<rect x="210" y="160" width="10" height="10" fill="#292929" />
<rect x="220" y="160" width="10" height="10" fill="#2B2B2B" />
<rect x="230" y="160" width="10" height="10" fill="#2D2D2D" />
<rect x="10" y="170" width="10" height="80" fill="#D8BEA5" />
<rect x="90" y="170" width="10" height="20" fill="#101010" />
<rect x="100" y="170" width="10" height="10" fill="#111111" />
<rect x="110" y="170" width="10" height="10" fill="#101010" />
<rect x="170" y="170" width="10" height="60" fill="#101010" />
<rect x="190" y="170" width="10" height="10" fill="#232323" />
<rect x="200" y="170" width="10" height="10" fill="#252525" />
<rect x="210" y="170" width="10" height="10" fill="#272727" />
<rect x="220" y="170" width="10" height="10" fill="#292929" />
<rect x="230" y="170" width="10" height="10" fill="#2B2B2B" />
<rect x="240" y="170" width="10" height="40" fill="#D8BEA5" />
<rect x="300" y="170" width="10" height="30" fill="#E4CBB5" />
<rect x="310" y="170" width="10" height="50" fill="#D8BEA5" />
<rect x="0" y="180" width="10" height="70" fill="#D8BEA5" />
<rect x="70" y="180" width="10" height="30" fill="#C7AA99" />
<rect x="100" y="180" width="10" height="20" fill="#101010" />
<rect x="110" y="180" width="10" height="10" fill="#111111" />
<rect x="180" y="180" width="10" height="10" fill="#1F1F1F" />
<rect x="190" y="180" width="10" height="10" fill="#212121" />
<rect x="200" y="180" width="10" height="10" fill="#101010" />
<rect x="210" y="180" width="10" height="10" fill="#262626" />
<rect x="220" y="180" width="10" height="10" fill="#282828" />
<rect x="230" y="180" width="10" height="10" fill="#2A2A2A" />
<rect x="80" y="190" width="10" height="10" fill="#151515" />
<rect x="90" y="190" width="10" height="10" fill="#111111" />
<rect x="110" y="190" width="10" height="10" fill="#101010" />
<rect x="180" y="190" width="10" height="10" fill="#1E1E1E" />
<rect x="190" y="190" width="10" height="10" fill="#202020" />
<rect x="200" y="190" width="10" height="10" fill="#222222" />
<rect x="210" y="190" width="10" height="10" fill="#101010" />
<rect x="220" y="190" width="10" height="10" fill="#262626" />
<rect x="230" y="190" width="10" height="10" fill="#282828" />
<rect x="80" y="200" width="10" height="10" fill="#1A1A1A" />
<rect x="90" y="200" width="10" height="10" fill="#161616" />
<rect x="100" y="200" width="20" height="20" fill="#181818" />
<rect x="180" y="200" width="10" height="40" fill="#101010" />
<rect x="190" y="200" width="10" height="10" fill="#1E1E1E" />
<rect x="200" y="200" width="10" height="10" fill="#202020" />
<rect x="210" y="200" width="10" height="10" fill="#222222" />
<rect x="220" y="200" width="10" height="10" fill="#101010" />
<rect x="230" y="200" width="10" height="10" fill="#262626" />
<rect x="290" y="200" width="20" height="80" fill="#D8BEA5" />
<rect x="70" y="210" width="10" height="10" fill="#D8BEA5" />
<rect x="80" y="210" width="10" height="10" fill="#1F1F1F" />
<rect x="90" y="210" width="10" height="10" fill="#242424" />
<rect x="120" y="210" width="10" height="40" fill="#181818" />
<rect x="130" y="210" width="40" height="10" fill="#101010" />
<rect x="190" y="210" width="10" height="10" fill="#1C1C1C" />
<rect x="200" y="210" width="10" height="10" fill="#1E1E1E" />
<rect x="210" y="210" width="10" height="10" fill="#202020" />
<rect x="220" y="210" width="10" height="10" fill="#222222" />
<rect x="230" y="210" width="10" height="10" fill="#242424" />
<rect x="240" y="210" width="10" height="40" fill="#C7AA99" />
<rect x="70" y="220" width="10" height="30" fill="#C7AA99" />
<rect x="80" y="220" width="10" height="10" fill="#252525" />
<rect x="90" y="220" width="10" height="10" fill="#212121" />
<rect x="100" y="220" width="20" height="20" fill="#242424" />
<rect x="130" y="220" width="10" height="10" fill="#111111" />
<rect x="140" y="220" width="10" height="10" fill="#101010" />
<rect x="150" y="220" width="10" height="10" fill="#121212" />
<rect x="160" y="220" width="10" height="20" fill="#181818" />
<rect x="190" y="220" width="10" height="10" fill="#181818" />
<rect x="200" y="220" width="10" height="10" fill="#1C1C1C" />
<rect x="210" y="220" width="10" height="10" fill="#1E1E1E" />
<rect x="220" y="220" width="10" height="10" fill="#202020" />
<rect x="230" y="220" width="10" height="10" fill="#222222" />
<rect x="310" y="220" width="10" height="30" fill="#C7AA99" />
<rect x="20" y="230" width="10" height="70" fill="#D8BEA5" />
<rect x="80" y="230" width="20" height="10" fill="#242424" />
<rect x="130" y="230" width="10" height="10" fill="#161616" />
<rect x="140" y="230" width="20" height="10" fill="#181818" />
<rect x="170" y="230" width="10" height="10" fill="#141414" />
<rect x="190" y="230" width="20" height="10" fill="#101010" />
<rect x="210" y="230" width="10" height="10" fill="#1C1C1C" />
<rect x="220" y="230" width="10" height="10" fill="#1F1F1F" />
<rect x="230" y="230" width="10" height="10" fill="#212121" />
<rect x="80" y="240" width="20" height="10" fill="#313131" />
<rect x="100" y="240" width="10" height="10" fill="#272727" />
<rect x="110" y="240" width="10" height="10" fill="#242424" />
<rect x="130" y="240" width="20" height="20" fill="#181818" />
<rect x="150" y="240" width="10" height="10" fill="#131313" />
<rect x="160" y="240" width="10" height="10" fill="#101010" />
<rect x="170" y="240" width="10" height="10" fill="#121212" />
<rect x="180" y="240" width="10" height="10" fill="#151515" />
<rect x="190" y="240" width="10" height="10" fill="#171717" />
<rect x="200" y="240" width="10" height="10" fill="#101010" />
<rect x="210" y="240" width="10" height="10" fill="#1B1B1B" />
<rect x="220" y="240" width="10" height="10" fill="#1D1D1D" />
<rect x="230" y="240" width="10" height="10" fill="#1F1F1F" />
<rect x="0" y="250" width="20" height="20" fill="#C7AA99" />
<rect x="70" y="250" width="10" height="40" fill="#E4CBB5" />
<rect x="80" y="250" width="10" height="10" fill="#C7AA99" />
<rect x="90" y="250" width="20" height="10" fill="#313131" />
<rect x="110" y="250" width="10" height="10" fill="#292929" />
<rect x="120" y="250" width="10" height="10" fill="#252525" />
<rect x="150" y="250" width="10" height="10" fill="#191919" />
<rect x="160" y="250" width="10" height="10" fill="#151515" />
<rect x="170" y="250" width="10" height="10" fill="#111111" />
<rect x="180" y="250" width="10" height="10" fill="#131313" />
<rect x="190" y="250" width="10" height="10" fill="#151515" />
<rect x="200" y="250" width="10" height="10" fill="#171717" />
<rect x="210" y="250" width="10" height="10" fill="#191919" />
<rect x="220" y="250" width="10" height="10" fill="#1B1B1B" />
<rect x="230" y="250" width="10" height="10" fill="#C7AA99" />
<rect x="240" y="250" width="10" height="40" fill="#E4CBB5" />
<rect x="280" y="250" width="10" height="50" fill="#D8BEA5" />
<rect x="310" y="250" width="10" height="20" fill="#D8BEA5" />
<rect x="80" y="260" width="10" height="40" fill="#E4CBB5" />
<rect x="90" y="260" width="30" height="10" fill="#C7AA99" />
<rect x="120" y="260" width="40" height="10" fill="#D8BEA5" />
<rect x="160" y="260" width="70" height="10" fill="#C7AA99" />
<rect x="230" y="260" width="10" height="30" fill="#E4CBB5" />
<rect x="250" y="260" width="20" height="30" fill="#E4CBB5" />
<rect x="270" y="260" width="10" height="40" fill="#D8BEA5" />
<rect x="0" y="270" width="20" height="20" fill="#D8BEA5" />
<rect x="30" y="270" width="10" height="30" fill="#D8BEA5" />
<rect x="40" y="270" width="30" height="10" fill="#E4CBB5" />
<rect x="90" y="270" width="140" height="30" fill="#E4CBB5" />
<rect x="310" y="270" width="10" height="20" fill="#C7AA99" />
<rect x="40" y="280" width="30" height="20" fill="#D8BEA5" />
<rect x="290" y="280" width="20" height="20" fill="#C7AA99" />
<rect x="10" y="290" width="10" height="10" fill="#D8BEA5" />
<rect x="70" y="290" width="10" height="20" fill="#D8BEA5" />
<rect x="230" y="290" width="40" height="30" fill="#D8BEA5" />
<rect x="20" y="300" width="30" height="10" fill="#C7AA99" />
<rect x="50" y="300" width="20" height="10" fill="#D8BEA5" />
<rect x="80" y="300" width="30" height="20" fill="#D8BEA5" />
<rect x="110" y="300" width="80" height="10" fill="#E4CBB5" />
<rect x="190" y="300" width="40" height="20" fill="#D8BEA5" />
<rect x="270" y="300" width="30" height="10" fill="#C7AA99" />
<rect x="30" y="310" width="50" height="10" fill="#C7AA99" />
<rect x="110" y="310" width="80" height="10" fill="#D8BEA5" />
<rect x="270" y="310" width="20" height="10" fill="#C7AA99" />
</svg>