<svg width="516" height="193" viewBox="0 0 516 193" fill="none" xmlns="http://www.w3.org/2000/svg">
<path d="M478.539 37.5122L478.283 37.7503L477.092 36.4676L477.349 36.2295L477.111 35.973L477.367 35.7349L477.129 35.4783L477.642 35.0022L477.404 34.7456L478.687 33.5551L478.925 33.8117L479.438 33.3355L479.676 33.592L479.932 33.3539L480.171 33.6104L480.427 33.3723L480.665 33.6289L480.922 33.3908L482.35 34.93L483.633 33.7395L483.157 33.2264L483.413 32.9883L484.366 34.0145L484.622 33.7764L485.098 34.2894L480.224 38.8133L480.462 39.0698L479.949 39.546L478.759 38.2633L479.272 37.7872L479.034 37.5306L479.29 37.2925L479.528 37.5491L482.094 35.1681L481.141 34.1419L480.885 34.38L480.647 34.1235L480.134 34.5997L479.896 34.3432L478.613 35.5337L478.851 35.7902L478.338 36.2664L478.576 36.5229L478.32 36.761L479.034 37.5306L478.777 37.7687L478.539 37.5122ZM479.528 37.5491L479.272 37.7872L479.51 38.0437L479.767 37.8056L479.528 37.5491ZM487.333 39.9593L484.12 38.5709L483.981 38.8922L484.302 39.031L484.025 39.6736L484.346 39.8124L484.068 40.455L484.711 40.7327L484.572 41.0539L485.857 41.6093L485.718 41.9306L485.397 41.7918L485.258 42.113L483.331 41.28L483.469 40.9587L482.827 40.681L482.966 40.3597L482.644 40.2209L482.922 39.5783L482.601 39.4395L483.434 37.5118L483.755 37.6506L484.033 37.0081L484.354 37.1469L484.493 36.8256L485.135 37.1033L485.274 36.782L487.202 37.6151L487.063 37.9363L487.706 38.214L487.428 38.8566L487.749 38.9954L487.333 39.9593ZM484.58 38.3884L486.508 39.2215L486.785 38.5789L486.464 38.4401L486.603 38.1188L486.282 37.9799L486.421 37.6587L485.778 37.381L485.639 37.7023L485.318 37.5634L485.179 37.8847L484.858 37.7459L484.58 38.3884ZM486.178 41.7481L485.857 41.6093L485.996 41.288L486.317 41.4269L486.456 41.1056L486.777 41.2444L486.639 41.5657L486.317 41.4269L486.178 41.7481ZM488.214 42.3675L488.174 42.7152L487.478 42.6355L487.678 40.8968L488.026 40.9367L487.986 41.2844L488.333 41.3243L488.294 41.672L488.641 41.7119L488.601 42.0596L488.949 42.0995L488.909 42.4472L489.952 42.5668L489.992 42.2191L490.34 42.2589L490.42 41.5635L490.072 41.5236L490.112 41.1759L489.069 41.0563L489.109 40.7086L488.413 40.6289L488.453 40.2811L487.758 40.2014L487.957 38.4628L488.305 38.5027L488.344 38.1549L488.692 38.1948L488.732 37.8471L490.471 38.0464L490.431 38.3941L490.779 38.434L490.739 38.7817L491.086 38.8216L491.126 38.4739L490.779 38.434L490.818 38.0863L491.514 38.166L491.315 39.9046L490.967 39.8648L491.007 39.517L490.659 39.4772L490.739 38.7817L490.043 38.702L490.083 38.3543L489.388 38.2745L489.348 38.6223L489 38.5824L488.92 39.2778L489.268 39.3177L489.228 39.6654L490.271 39.785L490.231 40.1328L490.927 40.2125L490.887 40.5602L491.582 40.6399L491.383 42.3786L491.035 42.3387L490.996 42.6864L490.648 42.6465L490.608 42.9943L488.522 42.7551L488.562 42.4073L488.214 42.3675L488.254 42.0197L487.906 41.9799L487.866 42.3276L488.214 42.3675ZM492.057 36.9782L491.999 35.9297L493.397 35.8525L493.455 36.9009L492.057 36.9782ZM494.462 42.4538L494.482 42.8033L491.336 42.977L491.317 42.6275L492.016 42.5889L491.997 42.2395L492.346 42.2202L492.172 39.075L491.823 39.0943L491.804 38.7448L491.454 38.7641L491.435 38.4146L492.134 38.376L492.115 38.0266L493.512 37.9493L493.763 42.4924L494.462 42.4538ZM494.424 43.3778L495.104 43.2122L494.938 42.5321L494.598 42.6149L494.432 41.9348L494.773 41.8519L494.69 41.5119L495.03 41.4291L494.947 41.089L495.287 41.0062L495.204 40.6661L494.864 40.749L494.781 40.4089L494.441 40.4917L494.358 40.1516L494.018 40.2344L493.687 38.8742L494.027 38.7914L493.944 38.4513L494.284 38.3685L494.202 38.0285L494.542 37.9456L494.459 37.6056L496.839 37.0259L496.757 36.6858L497.097 36.603L497.014 36.263L498.374 35.9317L498.705 37.292L498.365 37.3748L498.282 37.0347L497.602 37.2004L497.519 36.8603L497.86 36.7775L497.777 36.4374L497.097 36.603L497.179 36.9431L496.839 37.0259L496.922 37.366L497.262 37.2832L497.345 37.6232L497.685 37.5404L497.768 37.8805L498.108 37.7977L498.356 38.8179L498.016 38.9007L498.182 39.5808L497.842 39.6636L497.925 40.0037L497.245 40.1693L497.327 40.5093L495.627 40.9234L495.71 41.2635L495.37 41.3463L495.453 41.6863L497.493 41.1895L497.576 41.5295L498.936 41.1983L499.019 41.5384L499.359 41.4556L499.69 42.8158L499.35 42.8986L499.433 43.2387L499.093 43.3215L499.176 43.6615L498.496 43.8272L498.578 44.1672L495.858 44.8297L495.775 44.4896L495.095 44.6553L495.012 44.3152L494.672 44.398L494.424 43.3778ZM496.224 40.4177L496.564 40.3349L496.482 39.9948L496.822 39.912L496.739 39.572L497.079 39.4892L496.748 38.1289L496.408 38.2117L496.242 37.5316L495.222 37.78L495.305 38.1201L494.965 38.2029L495.379 39.9032L495.719 39.8204L495.802 40.1605L496.142 40.0777L496.224 40.4177ZM495.618 42.3665L495.278 42.4493L495.361 42.7893L495.701 42.7065L495.618 42.3665ZM496.795 44.2412L497.815 43.9928L497.733 43.6527L498.753 43.4043L498.504 42.3841L495.444 43.1294L495.692 44.1496L496.712 43.9011L496.795 44.2412ZM499.776 36.1614L500.077 35.9821L499.898 35.6815L500.198 35.5023L500.019 35.2016L501.522 34.3055L501.702 34.6061L502.002 34.4269L502.181 34.7275L502.482 34.5483L504.454 37.8552L505.055 37.4967L505.234 37.7974L502.829 39.2312L502.65 38.9306L502.95 38.7513L502.771 38.4507L503.072 38.2715L501.459 35.5658L501.158 35.7451L500.979 35.4444L500.077 35.9821L500.256 36.2828L499.956 36.462L499.776 36.1614L499.476 36.3406L499.655 36.6412L499.956 36.462L501.748 39.4683L502.049 39.289L502.228 39.5897L500.123 40.8443L499.944 40.5436L500.245 40.3644L500.066 40.0638L500.366 39.8845L498.753 37.1789L498.453 37.3581L498.273 37.0575L497.973 37.2367L497.793 36.9361L498.395 36.5776L498.215 36.277L499.418 35.5601L499.776 36.1614ZM506.049 36.1351L506.313 36.3647L505.854 36.893L504.533 35.745L504.762 35.4808L505.027 35.7104L505.256 35.4463L505.52 35.6759L505.75 35.4117L506.014 35.6413L506.244 35.3771L506.508 35.6068L507.197 34.8143L506.932 34.5847L507.162 34.3205L506.634 33.8613L506.404 34.1255L506.14 33.8958L505.451 34.6883L505.187 34.4587L504.728 34.9871L504.464 34.7574L504.004 35.2858L502.684 34.1377L502.913 33.8736L502.649 33.644L502.879 33.3798L502.615 33.1502L503.763 31.8294L504.027 32.059L504.256 31.7948L504.52 32.0244L504.75 31.7603L504.486 31.5307L504.256 31.7948L503.992 31.5652L504.451 31.0369L505.772 32.1849L505.543 32.4491L505.278 32.2195L505.049 32.4837L504.52 32.0244L504.061 32.5528L503.797 32.3232L503.338 32.8515L503.602 33.0811L503.372 33.3453L503.901 33.8045L504.13 33.5403L504.395 33.7699L505.083 32.9774L505.348 33.207L505.807 32.6787L506.071 32.9083L506.53 32.38L507.851 33.528L507.621 33.7922L507.885 34.0218L507.656 34.2859L507.92 34.5155L506.542 36.1005L506.278 35.8709L506.049 36.1351L505.784 35.9055L505.555 36.1696L505.819 36.3992L506.049 36.1351Z" fill="black"/>
<path d="M491.006 34.328C487.763 34.328 485.033 33.2187 482.814 31C480.766 28.6107 479.742 25.7946 479.742 22.552C479.742 17.944 481.786 11.544 484.602 11.544C488.866 11.544 489.018 20.208 492.602 20.208C496.015 20.208 496.602 11.544 501.602 11.544C504.602 11.7081 505.598 15.5546 505.598 18.968C505.598 23.7466 504.147 27.5013 501.246 30.232C498.345 32.9627 494.931 34.328 491.006 34.328ZM470.014 191.768C464.382 191.768 460.371 189.72 457.982 185.624C455.593 181.357 455.507 174.445 457.726 164.888L476.67 83.7359C477.523 79.9812 477.609 77.0799 476.926 75.0319C476.414 72.8133 474.878 71.704 472.318 71.704C469.246 71.704 465.833 74.0079 462.078 78.6159C458.494 83.0532 454.398 91.5866 449.79 104.216C449.107 106.435 447.913 107.544 446.206 107.544C443.646 107.544 442.963 106.008 444.158 102.936C447.913 91.1599 451.838 81.9439 455.934 75.2879C460.201 68.6319 464.467 63.9387 468.734 61.208C473.001 58.4773 476.926 57.112 480.51 57.112C486.483 57.112 490.665 59.2453 493.054 63.512C495.443 67.608 495.529 74.4346 493.31 83.9919L474.366 165.144C473.513 168.898 473.342 171.885 473.854 174.104C474.537 176.152 476.158 177.176 478.718 177.176C481.79 177.176 485.118 174.957 488.702 170.52C492.457 165.912 496.638 157.293 501.246 144.664C501.929 142.445 503.123 141.336 504.83 141.336C507.39 141.336 508.073 142.872 506.878 145.944C503.294 157.549 499.283 166.765 494.846 173.592C490.579 180.248 486.313 184.941 482.046 187.672C477.779 190.402 473.769 191.768 470.014 191.768Z" fill="black"/>
<path d="M403.286 191.512C394.241 191.512 386.987 188.013 381.526 181.016C376.065 173.848 373.334 163.779 373.334 150.808C373.334 139.544 375.297 128.365 379.222 117.272C383.318 106.179 388.609 96.1093 395.094 87.064C401.579 78.0187 408.662 70.7653 416.342 65.304C424.193 59.8427 431.787 57.112 439.126 57.112C447.147 57.112 452.865 59.0747 456.278 63C459.862 66.7547 461.654 71.8747 461.654 78.36C461.654 86.04 458.923 93.72 453.462 101.4C448.171 108.909 440.662 115.651 430.934 121.624C421.377 127.597 410.113 132.035 397.142 134.936C393.387 135.789 391.425 137.923 391.254 141.336C391.083 142.531 390.998 143.811 390.998 145.176C390.998 146.371 390.998 147.565 390.998 148.76C390.998 158.488 392.619 165.827 395.862 170.776C399.275 175.725 403.883 178.2 409.686 178.2C416.171 178.2 422.401 175.213 428.374 169.24C434.518 163.267 439.638 154.819 443.734 143.896C444.246 142.36 445.27 141.592 446.806 141.592C447.83 141.592 448.427 142.019 448.598 142.872C448.939 143.725 448.939 144.749 448.598 145.944C443.137 160.963 436.481 172.312 428.63 179.992C420.95 187.672 412.502 191.512 403.286 191.512ZM393.814 125.208C393.473 126.403 393.643 127.427 394.326 128.28C395.179 128.963 396.203 129.133 397.398 128.792C407.979 125.891 416.854 121.539 424.022 115.736C431.19 109.763 436.566 103.107 440.15 95.768C443.905 88.4293 445.782 81.2613 445.782 74.264C445.782 67.096 442.966 63.512 437.334 63.512C432.385 63.512 427.009 66.4133 421.206 72.216C415.403 78.0187 410.027 85.6133 405.078 95C400.129 104.387 396.374 114.456 393.814 125.208Z" fill="black"/>
<path d="M312.256 189.208C309.867 189.208 308.928 188.099 309.44 185.88L333.76 83.736C334.613 79.9813 334.699 77.08 334.016 75.032C333.504 72.8133 331.968 71.704 329.408 71.704C326.336 71.704 322.923 74.008 319.168 78.616C315.584 83.0533 311.488 91.5867 306.88 104.216C306.197 106.435 305.003 107.544 303.296 107.544C300.736 107.544 300.053 106.008 301.248 102.936C305.003 91.16 308.928 81.944 313.024 75.288C317.291 68.632 321.557 63.9387 325.824 61.208C330.091 58.4773 334.016 57.112 337.6 57.112C343.232 57.112 347.243 59.2453 349.632 63.512C352.021 67.608 352.107 74.4347 349.888 83.992L347.072 96.024C346.901 97.2187 347.157 97.9013 347.84 98.072C348.523 98.2427 349.12 97.816 349.632 96.792C356.117 81.944 362.005 71.6187 367.296 65.816C372.587 60.0133 378.645 57.112 385.472 57.112C390.08 57.112 393.493 58.392 395.712 60.952C398.101 63.3413 399.296 66.6693 399.296 70.936C399.296 75.2027 398.272 78.616 396.224 81.176C394.176 83.736 391.531 85.016 388.288 85.016C385.557 85.016 383.595 84.3333 382.4 82.968C381.205 81.6027 380.267 80.0667 379.584 78.36C379.072 76.4827 378.475 74.8613 377.792 73.496C377.109 72.1307 376 71.448 374.464 71.448C371.904 71.448 368.576 74.6907 364.48 81.176C360.384 87.6613 355.947 96.4507 351.168 107.544C346.56 118.467 342.037 130.755 337.6 144.408C333.333 158.061 329.579 172.056 326.336 186.392C325.824 188.269 324.629 189.208 322.752 189.208H312.256Z" fill="black"/>
<path d="M228.382 192.512C222.067 192.512 217.203 189.867 213.79 184.576C210.377 179.285 208.67 171.52 208.67 161.28C208.67 151.552 210.035 141.824 212.766 132.096C215.497 122.197 219.251 112.811 224.03 103.936C228.809 95.0613 234.185 87.2107 240.158 80.384C246.302 73.5573 252.702 68.1813 259.358 64.256C266.185 60.16 272.926 58.112 279.582 58.112C284.19 58.112 288.201 59.3067 291.614 61.696C294.003 63.232 295.454 62.72 295.966 60.16L304.158 26.368C305.011 23.296 305.011 21.1627 304.158 19.968C303.475 18.7733 301.939 18.0907 299.55 17.92L291.87 17.152C289.31 16.9813 288.201 15.872 288.542 13.824C288.883 12.288 290.078 11.3493 292.126 11.008C298.27 9.984 303.731 8.78933 308.51 7.424C313.289 5.888 317.129 3.92533 320.03 1.536C321.395 0.511999 322.675 0 323.87 0C325.918 0 326.686 1.28 326.174 3.84L289.822 161.28C287.262 172.373 288.969 177.92 294.942 177.92C298.867 177.92 302.366 175.275 305.438 169.984C308.681 164.693 311.923 156.501 315.166 145.408C315.678 143.531 316.787 142.592 318.494 142.592C319.689 142.592 320.457 143.104 320.798 144.128C321.139 145.152 321.139 146.347 320.798 147.712C317.555 163.755 313.033 175.275 307.23 182.272C301.598 189.099 294.942 192.512 287.262 192.512C280.606 192.512 275.827 189.696 272.926 184.064C270.195 178.432 269.939 170.752 272.158 161.024L274.974 149.248C275.315 148.053 275.059 147.371 274.206 147.2C273.523 147.029 272.926 147.456 272.414 148.48C264.222 164.523 256.457 175.872 249.118 182.528C241.779 189.184 234.867 192.512 228.382 192.512ZM234.526 179.456C238.622 179.456 243.145 176.981 248.094 172.032C253.043 167.083 257.907 160.683 262.686 152.832C267.635 144.981 272.158 136.533 276.254 127.488C280.35 118.443 283.593 109.739 285.982 101.376C288.542 93.0133 289.822 85.9307 289.822 80.128C289.822 69.7173 286.153 64.512 278.814 64.512C274.377 64.512 269.683 66.56 264.734 70.656C259.785 74.5813 255.006 79.9573 250.398 86.784C245.961 93.6107 241.865 101.376 238.11 110.08C234.526 118.613 231.625 127.573 229.406 136.96C227.187 146.176 226.078 155.221 226.078 164.096C226.078 170.069 226.846 174.165 228.382 176.384C230.089 178.432 232.137 179.456 234.526 179.456Z" fill="black"/>
<path d="M100.77 185.88L125.09 83.736C125.943 79.9813 126.029 77.08 125.346 75.032C124.834 72.8133 123.298 71.704 120.738 71.704C117.666 71.704 114.253 74.008 110.498 78.616C106.914 83.0533 100.102 101.708 98.21 104.216C95.7535 107.472 93.102 107.208 93.102 107.208C92.102 107.208 91.3834 106.008 92.578 102.936C96.3327 91.16 100.258 81.944 104.354 75.288C108.621 68.632 112.887 63.9387 117.154 61.208C121.421 58.4773 125.346 57.112 128.93 57.112C134.562 57.112 138.573 59.2453 140.962 63.512C143.351 67.608 143.437 74.4347 141.218 83.992L134.818 111.64C134.647 112.835 134.903 113.517 135.586 113.688C136.269 113.859 136.866 113.432 137.378 112.408C144.034 98.584 150.434 87.6613 156.578 79.64C162.722 71.448 168.525 65.6453 173.986 62.232C179.447 58.8187 184.397 57.112 188.834 57.112C195.149 57.112 199.757 59.672 202.658 64.792C205.559 69.912 205.559 77.7627 202.658 88.344L183.202 162.584C182.007 167.363 181.922 170.947 182.946 173.336C183.97 175.725 185.847 176.92 188.578 176.92C191.991 176.92 195.319 174.701 198.562 170.264C201.975 165.656 207.018 153.837 210.602 141.208C211.114 139.331 210.679 141.592 212.386 141.592C213.751 141.592 214.519 142.104 214.69 143.128C215.031 144.152 215.031 145.347 214.69 146.712C211.447 158.317 207.949 167.448 204.194 174.104C200.439 180.589 196.599 185.112 192.674 187.672C188.919 190.232 185.079 191.512 181.154 191.512C175.01 191.512 170.402 188.952 167.33 183.832C164.258 178.712 164.087 170.776 166.818 160.024L186.53 85.784C188.407 79.128 188.663 74.52 187.298 71.96C186.103 69.4 184.311 68.12 181.922 68.12C178.167 68.12 173.901 70.5093 169.122 75.288C164.343 79.896 159.479 86.296 154.53 94.488C149.581 102.509 144.717 111.64 139.938 121.88C135.159 132.12 130.807 142.787 126.882 153.88C123.127 164.973 120.055 175.811 117.666 186.392C117.154 188.269 115.959 189.208 114.082 189.208H103.586C101.197 189.208 100.258 188.099 100.77 185.88Z" fill="black"/>
<path d="M19.456 191.512C13.312 191.512 8.53333 188.867 5.12 183.576C1.70667 178.285 0 170.52 0 160.28C0 150.552 1.36533 140.824 4.096 131.096C6.82667 121.197 10.5813 111.811 15.36 102.936C20.1387 94.0613 25.5147 86.2107 31.488 79.384C37.632 72.5573 44.032 67.1813 50.688 63.256C57.5147 59.16 64.256 57.112 70.912 57.112C74.1547 57.112 77.2267 57.7947 80.128 59.16C83.0293 60.3547 85.4187 62.3173 87.296 65.048C88.32 66.584 89.344 67.352 90.368 67.352C91.392 67.352 92.416 66.584 93.44 65.048C95.3173 62.3173 96.8533 60.6107 98.048 59.928C99.2427 59.0747 100.352 58.648 101.376 58.648C103.595 58.648 104.448 59.8427 103.936 62.232L81.152 160.28C78.592 171.373 80.2987 176.92 86.272 176.92C90.1973 176.92 93.102 174.87 96.768 168.984C104.102 157.208 106.541 150.329 111.102 141.208C112.602 138.208 113.102 135.708 117.102 136.708C120.053 137.446 116.394 138.503 114.602 147.208C112.81 155.913 104.533 174.275 99.072 181.272C93.6107 188.099 87.04 191.512 79.36 191.512C72.704 191.512 67.9253 188.696 65.024 183.064C62.2933 177.432 62.0373 169.752 64.256 160.024L67.584 145.944C67.9253 144.749 67.6693 144.067 66.816 143.896C66.1333 143.725 65.536 144.152 65.024 145.176C55.6373 162.413 47.2747 174.445 39.936 181.272C32.768 188.099 25.9413 191.512 19.456 191.512ZM25.856 178.456C29.952 178.456 34.4747 175.981 39.424 171.032C44.3733 166.083 49.2373 159.683 54.016 151.832C58.9653 143.981 63.488 135.533 67.584 126.488C71.68 117.443 74.9227 108.739 77.312 100.376C79.872 92.0133 81.152 84.9307 81.152 79.128C81.152 68.7173 77.4827 63.512 70.144 63.512C65.7067 63.512 61.0133 65.56 56.064 69.656C51.1147 73.5813 46.336 78.9573 41.728 85.784C37.2907 92.6107 33.1947 100.376 29.44 109.08C25.856 117.613 22.9547 126.573 20.736 135.96C18.5173 145.176 17.408 154.221 17.408 163.096C17.408 169.069 18.0907 173.165 19.456 175.384C20.992 177.432 23.1253 178.456 25.856 178.456Z" fill="black"/>
</svg>
