<svg width="625" height="123" viewBox="0 0 625 123" fill="none" xmlns="http://www.w3.org/2000/svg">
<path d="M605 73H625V87H622V90H618V93H605V73Z" fill="#2F332F"/>
<path d="M561.95 85.76H563.23V84.48H564.51V83.2H565.79V81.92H567.07V76.8H565.79V78.08H564.51V80.64H563.23V81.92H561.95V83.2H560.67V85.76H559.39V87.04H558.11V88.32H556.83V89.6H554.27V90.88H552.99V92.16H550.43V93.44H546.59V94.72H535.07V93.44H531.23V92.16H528.67V90.88H527.39V89.6H526.11V87.04H524.83V83.2H523.55V76.8H524.83V74.24H526.11V71.68H527.39V70.4H528.67V69.12H529.95V67.84H532.51V66.56H535.07V65.28H537.63V64H541.47V62.72H545.31V61.44H549.15V60.16H552.99V58.88H556.83V57.6H560.67V56.32H561.95V43.52H560.67V40.96H559.39V38.4H556.83V37.12H554.27V35.84H546.59V37.12H542.75V38.4H541.47V39.68H540.19V43.52H542.75V49.92H541.47V52.48H540.19V53.76H538.91V55.04H529.95V53.76H528.67V52.48H527.39V49.92H526.11V44.8H527.39V40.96H528.67V39.68H529.95V37.12H531.23V35.84H532.51V34.56H535.07V33.28H537.63V32H540.19V30.72H544.03V29.44H563.23V30.72H568.35V32H570.91V33.28H572.19V34.56H573.47V35.84H574.75V37.12H576.03V38.4H577.31V40.96H578.59V44.8H579.87V83.2H581.15V84.48H582.43V85.76H587.55V84.48H590.11V85.76H588.83V87.04H587.55V89.6H586.27V90.88H583.71V92.16H582.43V93.44H578.59V94.72H569.63V93.44H567.07V92.16H564.51V89.6H563.23V87.04H561.95V85.76ZM545.31 84.48H554.27V83.2H556.83V81.92H558.11V80.64H559.39V79.36H560.67V78.08H561.95V61.44H559.39V62.72H556.83V64H552.99V65.28H549.15V66.56H546.59V67.84H544.03V69.12H542.75V71.68H541.47V80.64H542.75V83.2H545.31V84.48Z" fill="#2F332F"/>
<path d="M510.805 93.44V94.72H495.445V93.44H491.605V92.16H487.765V90.88H486.485V89.6H483.925V88.32H482.645V87.04H481.365V85.76H478.805V83.2H477.525V81.92H476.245V80.64H474.965V78.08H473.685V75.52H472.405V71.68H471.125V53.76H472.405V49.92H473.685V46.08H474.965V44.8H476.245V42.24H477.525V40.96H478.805V38.4H480.085V37.12H482.645V35.84H483.925V34.56H485.205V33.28H487.765V32H490.325V30.72H494.165V29.44H512.085V30.72H515.925V32H518.485V33.28H521.045V34.56H522.325V35.84H524.885V37.12H526.165V38.4H527.445V40.96H528.725V42.24H530.005V43.52H531.285V46.08H532.565V49.92H533.845V55.04H535.125V67.84H533.845V72.96H532.565V76.8H531.285V79.36H530.005V80.64H528.725V83.2H527.445V84.48H526.165V85.76H524.885V87.04H523.605V88.32H522.325V89.6H519.765V90.88H517.205V92.16H514.645V93.44H510.805ZM499.285 88.32H508.245V87.04H509.525V85.76H510.805V84.48H512.085V83.2H513.365V80.64H514.645V75.52H515.925V51.2H514.645V46.08H513.365V42.24H512.085V40.96H510.805V38.4H509.525V37.12H506.965V35.84H504.405V34.56H500.565V35.84H498.005V37.12H495.445V39.68H494.165V40.96H492.885V44.8H491.605V49.92H490.325V70.4H491.605V76.8H492.885V80.64H494.165V83.2H495.445V84.48H496.725V85.76H498.005V87.04H499.285V88.32Z" fill="#2F332F"/>
<path d="M428.78 121.6V122.88H414.7V121.6H412.14V120.32H410.86V119.04H409.58V117.76H408.3V108.8H409.58V107.52H410.86V106.24H413.42V104.96H419.82V106.24H421.1V107.52H422.38V110.08H423.66V115.2H419.82V117.76H423.66V116.48H427.5V115.2H430.06V113.92H431.34V112.64H432.62V110.08H433.9V108.8H435.18V106.24H436.46V103.68H437.74V101.12H439.02V98.56H440.3V96H441.58V93.44H442.86V92.16H444.14V89.6H442.86V87.04H441.58V84.48H440.3V81.92H439.02V79.36H437.74V76.8H436.46V74.24H435.18V71.68H433.9V69.12H432.62V66.56H431.34V64H430.06V61.44H428.78V58.88H427.5V56.32H426.22V53.76H424.94V51.2H423.66V48.64H422.38V46.08H421.1V43.52H419.82V40.96H418.54V39.68H417.26V37.12H414.7V35.84H413.42V34.56H409.58V30.72H449.26V34.56H444.14V35.84H442.86V37.12H441.58V42.24H442.86V44.8H444.14V47.36H445.42V49.92H446.7V52.48H447.98V55.04H449.26V57.6H450.54V60.16H451.82V62.72H453.1V67.84H451.82V72.96H454.38V70.4H455.66V67.84H456.94V65.28H458.22V62.72H459.5V61.44H460.78V58.88H462.06V56.32H463.34V53.76H464.62V51.2H465.9V48.64H467.18V46.08H468.46V43.52H469.74V38.4H468.46V37.12H467.18V35.84H465.9V34.56H460.78V30.72H487.66V34.56H485.1V35.84H482.54V37.12H481.26V38.4H479.98V39.68H478.7V42.24H477.42V44.8H476.14V46.08H474.86V48.64H473.58V51.2H472.3V53.76H471.02V56.32H469.74V58.88H468.46V61.44H467.18V64H465.9V65.28H464.62V69.12H463.34V70.4H462.06V72.96H460.78V75.52H459.5V78.08H458.22V80.64H456.94V83.2H455.66V85.76H454.38V88.32H453.1V89.6H451.82V93.44H450.54V94.72H449.26V97.28H447.98V99.84H446.7V102.4H445.42V104.96H444.14V107.52H442.86V110.08H441.58V111.36H440.3V113.92H439.02V115.2H437.74V116.48H436.46V117.76H435.18V119.04H433.9V120.32H431.34V121.6H428.78Z" fill="#2F332F"/>
<path d="M387.87 93.44V94.72H375.07V93.44H372.51V92.16H369.95V90.88H367.39V89.6H366.11V87.04H364.83V85.76H363.55V81.92H362.27V43.52H360.99V40.96H359.71V39.68H357.15V38.4H354.59V37.12H352.03V35.84H354.59V34.56H359.71V33.28H364.83V32H369.95V30.72H375.07V29.44H380.19V78.08H381.47V80.64H382.75V83.2H385.31V84.48H395.55V83.2H396.83V81.92H399.39V80.64H400.67V79.36H401.95V76.8H403.23V44.8H401.95V42.24H400.67V40.96H399.39V39.68H398.11V38.4H394.27V37.12H392.99V35.84H395.55V34.56H400.67V33.28H405.79V32H410.91V30.72H416.03V29.44H421.15V83.2H422.43V85.76H423.71V87.04H426.27V88.32H428.83V89.6H430.11V90.88H422.43V92.16H414.75V93.44H407.07V94.72H403.23V85.76H404.51V84.48H405.79V81.92H407.07V78.08H405.79V79.36H404.51V81.92H403.23V83.2H401.95V84.48H400.67V85.76H399.39V87.04H398.11V88.32H396.83V89.6H395.55V90.88H392.99V92.16H391.71V93.44H387.87Z" fill="#2F332F"/>
<path d="M326.445 89.6V93.44H290.605V89.6H294.445V88.32H297.005V87.04H298.285V85.76H299.565V11.52H298.285V10.24H295.725V8.96H294.445V7.68H291.885V6.4H290.605V5.12H295.725V3.84H300.845V2.56H305.965V1.28H311.085V0H317.485V38.4H316.205V39.68H314.925V40.96H313.645V46.08H314.925V43.52H316.205V42.24H317.485V40.96H318.765V39.68H320.045V38.4H321.325V37.12H322.605V35.84H323.885V34.56H325.165V33.28H327.725V32H329.005V30.72H332.845V29.44H346.925V30.72H350.765V32H352.045V33.28H353.325V34.56H354.605V35.84H355.885V38.4H357.165V42.24H358.445V84.48H359.725V87.04H361.005V88.32H363.565V89.6H367.405V93.44H332.845V89.6H336.685V88.32H339.245V85.76H340.525V46.08H339.245V43.52H337.965V40.96H335.405V39.68H325.165V40.96H322.605V42.24H321.325V43.52H320.045V44.8H318.765V46.08H317.485V85.76H318.765V87.04H320.045V88.32H321.325V89.6H326.445Z" fill="#2F332F"/>
<path d="M265.245 35.84H269.085V34.56H274.205V33.28H278.045V32H283.165V30.72H288.285V29.44H293.405V85.76H294.685V87.04H295.965V88.32H298.525V89.6H302.365V93.44L266 93.5V89.6H270.365V88.32H272.925V87.04H274.205V85.76H275.485V42.24H274.205V40.96H272.925V39.68H270.365V38.4H267.805V37.12H265.245V35.84Z" fill="#2F332F"/>
<path d="M279 27H278V26H277V25H276V24H275V23H274V22H273V21H272V20H271V19H270V18H269V17H268V13V12H269V10H271V9H273H274V10H277V11H278H279V12H280V13H281V12H282V11H283H284V10H287V9H290V10H292V12H293V17H292V18H291V19H290V20H289V21H288V22H287V23H286V24H285V25H284V26H283V27H282V28H281V29H280.5H280V28H279V27Z" fill="#2F332F"/>
<path d="M276.545 76.8V79.36H275.265V81.92H273.985V83.2H272.705V85.76H271.425V87.04H270.145V88.32H268.865V89.6H266.305V90.88H265.025V92.16H262.465V93.44H258.625V94.72H244.545V93.44H240.705V92.16H236.865V90.88H234.305V89.6H233.025V88.32H231.745V87.04H229.185V85.76H227.905V83.2H226.625V81.92H225.345V80.64H224.065V78.08H222.785V75.52H221.505V70.4H220.225V55.04H221.505V49.92H222.785V47.36H224.065V44.8H225.345V43.52H226.625V40.96H227.905V39.68H229.185V38.4H230.465V37.12H231.745V35.84H233.025V34.56H235.585V33.28H236.865V32H239.425V30.72H243.265V29.44H259.905V30.72H263.745V32H266.305V33.28H268.865V34.56H270.145V35.84H271.425V37.12H272.705V38.4H273.985V39.68H275.265V42.24H276.545V44.8H277.825V48.64H279.105V58.88H234.305V61.44H239.425V66.56H240.705V71.68H241.985V74.24H243.265V76.8H244.545V78.08H245.825V79.36H247.105V80.64H248.385V81.92H250.945V83.2H254.785V84.48H265.025V83.2H268.865V81.92H271.425V80.64H272.705V79.36H273.985V78.08H275.265V76.8H276.545ZM239.425 53.76H263.745V46.08H262.465V42.24H261.185V39.68H259.905V38.4H258.625V37.12H257.345V35.84H247.105V37.12H245.825V38.4H244.545V39.68H243.265V42.24H241.985V44.8H240.705V48.64H239.425V53.76ZM276.545 76.8V74.24H277.825V76.8H276.545Z" fill="#2F332F"/>
<path d="M213.705 89.6V93.44H177.865V89.6H181.705V88.32H184.265V87.04H185.545V85.76H186.825V42.24H185.545V40.96H184.265V39.68H181.705V38.4H179.145V37.12H176.585V35.84H180.425V34.56H185.545V33.28H189.385V32H194.505V30.72H199.625V29.44H204.745V38.4H203.465V40.96H202.185V43.52H200.905V49.92H202.185V47.36H203.465V44.8H204.745V42.24H206.025V39.68H207.305V38.4H208.585V37.12H209.865V35.84H211.145V34.56H212.425V33.28H213.705V32H216.265V30.72H218.825V29.44H229.065V30.72H231.625V32H232.905V33.28H234.185V34.56H235.465V37.12H236.745V42.24H235.465V44.8H234.185V46.08H232.905V47.36H231.625V48.64H225.225V47.36H222.665V46.08H221.385V44.8H220.105V38.4H223.945V35.84H217.545V37.12H214.985V38.4H213.705V39.68H212.425V40.96H211.145V42.24H209.865V43.52H208.585V44.8H207.305V47.36H206.025V49.92H204.745V84.48H206.025V87.04H207.305V88.32H209.865V89.6H213.705Z" fill="#2F332F"/>
<path d="M148.41 93.44V94.72H138.17V93.44H134.33V92.16H131.77V90.88H129.21V89.6H127.93V88.32H126.65V87.04H125.37V85.76H124.09V84.48H122.81V81.92H121.53V80.64H120.25V76.8H118.97V71.68H117.69V58.88H118.97V53.76H120.25V49.92H121.53V47.36H122.81V44.8H124.09V43.52H125.37V40.96H126.65V39.68H127.93V38.4H129.21V37.12H131.77V35.84H133.05V34.56H135.61V33.28H136.89V32H140.73V30.72H144.57V29.44H163.77V14.08H162.49V11.52H161.21V10.24H159.93V8.96H157.37V7.68H154.81V5.12H159.93V3.84H165.05V2.56H170.17V1.28H176.57V0H181.69V83.2H182.97V85.76H184.25V87.04H186.81V88.32H189.37V89.6H191.93V90.88H182.97V92.16H176.57V93.44H168.89V94.72H163.77V85.76H165.05V84.48H166.33V83.2H167.61V78.08H166.33V79.36H165.05V81.92H163.77V83.2H162.49V84.48H161.21V85.76H159.93V87.04H158.65V88.32H157.37V89.6H156.09V90.88H154.81V92.16H152.25V93.44H148.41ZM147.13 84.48H154.81V83.2H157.37V81.92H159.93V80.64H161.21V79.36H162.49V78.08H163.77V37.12H161.21V35.84H158.65V34.56H149.69V35.84H145.85V37.12H144.57V38.4H143.29V39.68H142.01V40.96H140.73V42.24H139.45V44.8H138.17V47.36H136.89V52.48H135.61V67.84H136.89V71.68H138.17V75.52H139.45V78.08H140.73V79.36H142.01V80.64H143.29V81.92H144.57V83.2H147.13V84.48Z" fill="#2F332F"/>
<path d="M88.295 89.6V93.44H52.455V89.6H57.575V88.32H60.135V85.76H61.415V42.24H60.135V40.96H58.855V39.68H57.575V38.4H55.015V37.12H51.175V35.84H55.015V34.56H60.135V33.28H63.975V32H69.095V30.72H74.215V29.44H79.335V38.4H78.055V39.68H76.775V42.24H75.495V46.08H76.775V44.8H78.055V43.52H79.335V40.96H80.615V39.68H81.895V38.4H83.175V37.12H84.455V35.84H85.735V34.56H88.295V33.28H89.575V32H92.135V30.72H94.695V29.44H110.055V30.72H112.615V32H113.895V33.28H115.175V34.56H116.455V35.84H117.735V38.4H119.015V42.24H120.295V84.48H121.575V87.04H122.855V88.32H125.415V89.6H129.255V93.44H94.695V89.6H98.535V88.32H101.095V85.76H102.375V44.8H101.095V42.24H99.815V40.96H97.255V39.68H87.015V40.96H84.455V42.24H83.175V43.52H81.895V44.8H80.615V46.08H79.335V85.76H80.615V87.04H81.895V88.32H84.455V89.6H88.295Z" fill="#2F332F"/>
<path d="M38.4 85.76H39.68V84.48H40.96V83.2H42.24V81.92H43.52V76.8H42.24V78.08H40.96V80.64H39.68V81.92H38.4V83.2H37.12V85.76H35.84V87.04H34.56V88.32H33.28V89.6H30.72V90.88H29.44V92.16H26.88V93.44H23.04V94.72H11.52V93.44H7.68V92.16H5.12V90.88H3.84V89.6H2.56V87.04H1.28V83.2H0V76.8H1.28V74.24H2.56V71.68H3.84V70.4H5.12V69.12H6.4V67.84H8.96V66.56H11.52V65.28H14.08V64H17.92V62.72H21.76V61.44H25.6V60.16H29.44V58.88H33.28V57.6H37.12V56.32H38.4V43.52H37.12V40.96H35.84V38.4H33.28V37.12H30.72V35.84H23.04V37.12H19.2V38.4H17.92V39.68H16.64V43.52H19.2V49.92H17.92V52.48H16.64V53.76H15.36V55.04H6.4V53.76H5.12V52.48H3.84V49.92H2.56V44.8H3.84V40.96H5.12V39.68H6.4V37.12H7.68V35.84H8.96V34.56H11.52V33.28H14.08V32H16.64V30.72H20.48V29.44H39.68V30.72H44.8V32H47.36V33.28H48.64V34.56H49.92V35.84H51.2V37.12H52.48V38.4H53.76V40.96H55.04V44.8H56.32V83.2H57.6V84.48H58.88V85.76H64V84.48H66.56V85.76H65.28V87.04H64V89.6H62.72V90.88H60.16V92.16H58.88V93.44H55.04V94.72H46.08V93.44H43.52V92.16H40.96V89.6H39.68V87.04H38.4V85.76ZM21.76 84.48H30.72V83.2H33.28V81.92H34.56V80.64H35.84V79.36H37.12V78.08H38.4V61.44H35.84V62.72H33.28V64H29.44V65.28H25.6V66.56H23.04V67.84H20.48V69.12H19.2V71.68H17.92V80.64H19.2V83.2H21.76V84.48Z" fill="#2F332F"/>
</svg>
